# xmcd
#
# Track frame offsets:
#	150
#	14917
#	32125
#	63925
#	92947
#	108917
#	122342
#	149432
#	185257
#	203697
#	231225
#
# Disc length: 3977 seconds
#
# Revision: 1
# Processed by: cddbd v1.5.2PL0 Copyright (c) Steve Scherf et al.
# Submitted via: EasyCDDAExtractor 11.0.0.1
#
DISCID=960f870b
DTITLE=Various Artist - Genios Españoles
DYEAR=1900
DGENRE=Folklore
TTITLE0=Recuerdos de la Alhambra
TTITLE1=Zapateo
TTITLE2=Asturias
TTITLE3=España
TTITLE4=Bohemios
TTITLE5=Danzas gitanas, op. 55
TTITLE6=El tambor de granaderos
TTITLE7=El sitio de Zaragoza
TTITLE8=Danza Española, op. 37
TTITLE9=Musica nocturna de Madrid
TTITLE10=Siete canciones populares españolas
EXTD=
EXTT0=
EXTT1=
EXTT2=
EXTT3=
EXTT4=
EXTT5=
EXTT6=
EXTT7=
EXTT8=
EXTT9=
EXTT10=
PLAYORDER=
